<mxfile host="app.diagrams.net" agent="Mozilla/5.0 (Macintosh; Intel Mac OS X 10_15_7) AppleWebKit/537.36 (KHTML, like Gecko) Chrome/126.0.0.0 Safari/537.36" version="24.7.8">
  <diagram name="ページ1" id="UODd1aM8QQ5Pn6sYFRuQ">
    <mxGraphModel dx="1551" dy="1058" grid="1" gridSize="10" guides="1" tooltips="1" connect="1" arrows="1" fold="1" page="1" pageScale="1" pageWidth="827" pageHeight="1169" math="0" shadow="0">
      <root>
        <mxCell id="0" />
        <mxCell id="1" parent="0" />
        <mxCell id="9vrgDv97sm5pIn5PaP7L-1" value="&lt;p style=&quot;margin:0px;margin-top:6px;text-align:center;&quot;&gt;&lt;b&gt;GetLocationInventory&lt;/b&gt;&lt;/p&gt;&lt;hr size=&quot;1&quot; style=&quot;border-style:solid;&quot;&gt;&lt;p style=&quot;margin:0px;margin-left:8px;&quot;&gt;+ id: num&lt;br&gt;+ location: string&lt;/p&gt;&lt;p style=&quot;margin:0px;margin-left:8px;&quot;&gt;+ sku: num&lt;/p&gt;&lt;p style=&quot;margin:0px;margin-left:8px;&quot;&gt;+ amount: num&lt;/p&gt;&lt;p style=&quot;margin:0px;margin-left:8px;&quot;&gt;&lt;br&gt;&lt;/p&gt;&lt;p style=&quot;margin:0px;margin-left:8px;&quot;&gt;&lt;br&gt;&lt;/p&gt;" style="align=left;overflow=fill;html=1;dropTarget=0;whiteSpace=wrap;" vertex="1" parent="1">
          <mxGeometry x="180" y="430" width="180" height="90" as="geometry" />
        </mxCell>
        <mxCell id="9vrgDv97sm5pIn5PaP7L-2" value="" style="shape=component;jettyWidth=8;jettyHeight=4;" vertex="1" parent="9vrgDv97sm5pIn5PaP7L-1">
          <mxGeometry x="1" width="20" height="20" relative="1" as="geometry">
            <mxPoint x="-24" y="4" as="offset" />
          </mxGeometry>
        </mxCell>
        <mxCell id="9vrgDv97sm5pIn5PaP7L-6" value="&lt;p style=&quot;margin:0px;margin-top:6px;text-align:center;&quot;&gt;&lt;b&gt;ValueStore&lt;/b&gt;&lt;/p&gt;&lt;hr size=&quot;1&quot; style=&quot;border-style:solid;&quot;&gt;&lt;p style=&quot;margin:0px;margin-left:8px;&quot;&gt;+ sku: num&lt;br&gt;+ amount: num&lt;/p&gt;" style="align=left;overflow=fill;html=1;dropTarget=0;whiteSpace=wrap;" vertex="1" parent="1">
          <mxGeometry x="490" y="430" width="180" height="90" as="geometry" />
        </mxCell>
        <mxCell id="9vrgDv97sm5pIn5PaP7L-7" value="" style="shape=component;jettyWidth=8;jettyHeight=4;" vertex="1" parent="9vrgDv97sm5pIn5PaP7L-6">
          <mxGeometry x="1" width="20" height="20" relative="1" as="geometry">
            <mxPoint x="-24" y="4" as="offset" />
          </mxGeometry>
        </mxCell>
        <mxCell id="9vrgDv97sm5pIn5PaP7L-11" value="" style="ellipse;whiteSpace=wrap;html=1;align=center;aspect=fixed;fillColor=none;strokeColor=none;resizable=0;perimeter=centerPerimeter;rotatable=0;allowArrows=0;points=[];outlineConnect=1;" vertex="1" parent="1">
          <mxGeometry x="450" y="440" width="10" height="10" as="geometry" />
        </mxCell>
        <mxCell id="9vrgDv97sm5pIn5PaP7L-12" value="" style="rounded=0;orthogonalLoop=1;jettySize=auto;html=1;endArrow=halfCircle;endFill=0;endSize=6;strokeWidth=1;sketch=0;exitX=0;exitY=0.5;exitDx=0;exitDy=0;" edge="1" target="9vrgDv97sm5pIn5PaP7L-14" parent="1" source="9vrgDv97sm5pIn5PaP7L-6">
          <mxGeometry relative="1" as="geometry">
            <mxPoint x="430" y="555" as="sourcePoint" />
          </mxGeometry>
        </mxCell>
        <mxCell id="9vrgDv97sm5pIn5PaP7L-13" value="" style="rounded=0;orthogonalLoop=1;jettySize=auto;html=1;endArrow=oval;endFill=0;sketch=0;sourcePerimeterSpacing=0;targetPerimeterSpacing=0;endSize=10;exitX=1;exitY=0.5;exitDx=0;exitDy=0;" edge="1" target="9vrgDv97sm5pIn5PaP7L-14" parent="1" source="9vrgDv97sm5pIn5PaP7L-1">
          <mxGeometry relative="1" as="geometry">
            <mxPoint x="390" y="555" as="sourcePoint" />
          </mxGeometry>
        </mxCell>
        <mxCell id="9vrgDv97sm5pIn5PaP7L-14" value="" style="ellipse;whiteSpace=wrap;html=1;align=center;aspect=fixed;fillColor=none;strokeColor=none;resizable=0;perimeter=centerPerimeter;rotatable=0;allowArrows=0;points=[];outlineConnect=1;" vertex="1" parent="1">
          <mxGeometry x="430" y="470" width="10" height="10" as="geometry" />
        </mxCell>
      </root>
    </mxGraphModel>
  </diagram>
</mxfile>
